<?xml version="1.0" standalone="no"?><!DOCTYPE svg PUBLIC "-//W3C//DTD SVG 1.1//EN" "http://www.w3.org/Graphics/SVG/1.1/DTD/svg11.dtd"><svg t="1683267817945" class="icon" viewBox="0 0 1024 1024" version="1.1" xmlns="http://www.w3.org/2000/svg" p-id="2646" xmlns:xlink="http://www.w3.org/1999/xlink" width="200" height="200"><path d="M938.667 347.733c36.266 0 66.133-29.866 66.133-66.133V85.333c0-36.266-29.867-66.133-66.133-66.133H742.4c-36.267 0-66.133 29.867-66.133 66.133v66.134H347.733V85.333c0-36.266-29.866-66.133-66.133-66.133H85.333C49.067 19.2 19.2 49.067 19.2 85.333V281.6c0 36.267 29.867 66.133 66.133 66.133h66.134v328.534H85.333c-36.266 0-66.133 29.866-66.133 66.133v196.267c0 36.266 29.867 66.133 66.133 66.133H281.6c36.267 0 66.133-29.867 66.133-66.133v-66.134h328.534v66.134c0 36.266 29.866 66.133 66.133 66.133h196.267c36.266 0 66.133-29.867 66.133-66.133V742.4c0-36.267-29.867-66.133-66.133-66.133h-66.134V347.733h66.134zM742.4 85.333h196.267V281.6H742.4V85.333z m-657.067 0H281.6V281.6H85.333V85.333zM938.667 742.4v196.267H742.4V742.4h196.267z m-130.134-66.133H742.4c-36.267 0-66.133 29.866-66.133 66.133v66.133H347.733V742.4c0-36.267-29.866-66.133-66.133-66.133h-66.133V347.733H281.6c36.267 0 66.133-29.866 66.133-66.133v-66.133h328.534V281.6c0 36.267 29.866 66.133 66.133 66.133h66.133v328.534z" fill="" p-id="2647"></path></svg>